<?xml version="1.0" standalone="no"?>
<!DOCTYPE svg PUBLIC "-//W3C//DTD SVG 20010904//EN"
 "http://www.w3.org/TR/2001/REC-SVG-20010904/DTD/svg10.dtd">
<svg version="1.0" xmlns="http://www.w3.org/2000/svg"
 width="640.000000pt" height="640.000000pt" viewBox="0 0 640.000000 640.000000"
 preserveAspectRatio="xMidYMid meet">
<metadata>
Created by potrace 1.14, written by Peter Selinger 2001-2017
</metadata>
<g transform="translate(0.000000,640.000000) scale(0.100000,-0.100000)"
fill="#000000" stroke="none">
<path d="M2009 4998 c-17 -24 -33 -49 -36 -55 -4 -10 -134 -13 -604 -13 -582
0 -602 -1 -662 -21 -120 -40 -220 -118 -293 -229 l-29 -44 -3 -1570 -2 -1570
21 -63 c46 -140 120 -232 223 -280 l61 -28 2476 0 2475 0 75 37 c133 66 201
140 258 283 l32 79 -1 1438 c0 823 -4 1458 -10 1485 -15 83 -58 207 -83 240
-50 67 -72 78 -179 81 l-98 4 0 49 c0 38 -4 51 -19 59 -24 12 -650 14 -670 1
-7 -5 -14 -30 -16 -57 -2 -38 -7 -49 -19 -48 -9 1 -337 2 -728 3 l-713 1 -85
130 -85 130 -627 0 -628 0 -31 -42z m1328 -121 c40 -62 79 -122 87 -132 14
-20 36 -20 1205 -25 1185 -5 1191 -5 1211 -26 30 -29 82 -161 85 -216 2 -26 6
-52 10 -57 4 -8 -808 -11 -2743 -11 l-2749 0 -7 31 c-3 17 -6 57 -6 88 0 116
92 236 235 307 l79 39 625 3 626 3 38 54 38 55 597 0 597 -1 72 -112z m1773
-67 l0 -30 -64 0 c-66 0 -77 7 -68 43 4 14 16 17 68 17 l64 0 0 -30z m80 0 c0
-27 -3 -30 -30 -30 -27 0 -30 3 -30 30 0 27 3 30 30 30 27 0 30 -3 30 -30z
m157 0 l2 -30 -69 0 c-39 0 -70 3 -70 8 0 4 3 17 6 30 6 20 13 22 68 22 61 0
61 0 63 -30z m71 -2 c-2 -25 -8 -33 -23 -33 -15 0 -21 8 -23 33 -3 29 -1 32
23 32 24 0 26 -3 23 -32z m162 2 l0 -30 -65 0 -65 0 0 30 0 30 65 0 65 0 0
-30z m362 -477 c3 -21 2 -2585 -1 -2770 l-1 -33 -2750 0 -2750 0 0 1415 0
1415 2749 0 2749 0 4 -27z m-22 -2868 c0 -32 -54 -120 -104 -170 -28 -28 -78
-64 -111 -81 l-60 -29 -2490 0 -2490 0 -47 23 c-26 13 -61 40 -79 60 -39 44
-101 176 -93 197 6 13 310 15 2740 15 2444 0 2734 -2 2734 -15z"/>
<path d="M2392 4808 l3 -123 113 -3 112 -3 0 126 0 125 -115 0 -116 0 3 -122z
m196 0 l3 -86 -78 -4 c-43 -2 -81 -2 -85 0 -9 4 -11 166 -2 175 4 3 41 5 83 4
l76 -2 3 -87z"/>
<path d="M2666 4914 c-8 -20 -8 -182 0 -212 l6 -22 267 2 266 3 0 120 0 120
-266 3 c-237 2 -267 1 -273 -14z m512 -105 l3 -87 -133 -5 c-108 -5 -279 -4
-345 2 -9 1 -13 25 -13 84 0 46 3 87 7 91 4 3 113 5 242 4 l236 -3 3 -86z"/>
<path d="M2559 4310 c-208 -24 -448 -117 -618 -238 -333 -239 -546 -612 -567
-997 l-7 -110 -175 3 c-186 3 -209 -1 -270 -45 -44 -33 -62 -72 -62 -138 0
-62 14 -97 57 -137 46 -44 72 -48 287 -48 l203 0 28 -82 c42 -124 131 -297
198 -382 248 -317 567 -497 952 -537 408 -41 801 91 1085 365 204 196 329 415
391 686 30 126 36 372 15 520 -28 189 -98 371 -210 544 -74 114 -259 300 -376
378 -150 99 -355 181 -520 208 -92 15 -321 20 -411 10z m371 -65 c333 -53 652
-245 848 -510 66 -89 153 -257 187 -360 59 -179 84 -383 65 -540 -38 -325
-164 -591 -379 -805 -245 -243 -575 -380 -915 -380 -301 0 -584 98 -821 284
-337 265 -529 716 -485 1137 53 507 358 914 823 1099 88 35 202 66 292 79 97
14 283 12 385 -4z m-1560 -1372 c0 -36 14 -141 25 -190 l5 -23 -190 0 c-213 0
-248 7 -274 59 -21 39 -20 100 0 130 39 55 65 61 257 61 l177 0 0 -37z"/>
<path d="M2500 3931 c-182 -40 -344 -129 -485 -266 -144 -139 -227 -279 -283
-474 -25 -88 -27 -110 -27 -271 0 -210 16 -282 100 -455 113 -234 301 -408
542 -505 142 -56 246 -73 423 -67 283 9 491 98 690 295 131 130 219 277 271
457 22 72 24 100 24 275 0 228 -12 285 -95 456 -127 263 -377 470 -655 545
-115 32 -384 37 -505 10z m450 -197 c310 -89 523 -322 595 -648 21 -94 16
-252 -10 -356 -23 -89 -93 -232 -153 -311 -97 -128 -286 -250 -452 -294 -352
-91 -744 76 -925 395 -47 83 -91 215 -105 318 -34 249 88 561 281 722 122 101
295 179 443 200 90 13 228 1 326 -26z"/>
<path d="M2708 3515 c48 -55 69 -97 82 -164 27 -145 -51 -295 -189 -360 -47
-22 -70 -26 -141 -26 -74 0 -92 4 -140 29 -61 31 -147 115 -156 152 -21 83
-59 -55 -59 -211 1 -104 4 -130 27 -193 112 -310 409 -482 719 -417 76 16 159
49 159 62 0 4 -12 26 -25 48 -60 97 -10 223 102 255 51 16 100 7 148 -26 21
-14 38 -24 40 -22 30 37 65 163 71 258 17 246 -119 480 -343 593 -76 39 -188
67 -266 67 l-69 0 40 -45z"/>
<path d="M1032 2837 c-28 -29 -29 -87 -4 -110 55 -50 132 -18 132 54 0 73 -79
108 -128 56z m84 -15 c20 -14 25 -45 9 -68 -17 -26 -53 -32 -73 -12 -15 15
-15 61 0 76 13 13 47 16 64 4z"/>
<path d="M685 4174 c-73 -38 -100 -90 -93 -183 4 -63 23 -95 76 -132 46 -31
134 -37 181 -12 133 70 131 272 -2 328 -47 19 -124 19 -162 -1z m117 -34 c21
-6 50 -26 68 -47 30 -33 32 -41 28 -90 -4 -44 -11 -60 -35 -84 -69 -69 -176
-51 -215 37 -18 41 -19 52 -8 87 13 45 58 93 93 100 12 2 24 5 27 6 3 0 22 -4
42 -9z"/>
<path d="M4410 4141 l-25 -7 -3 -1214 c-1 -668 0 -1224 2 -1235 5 -20 11 -20
743 -15 l738 5 3 1229 c2 977 0 1231 -10 1238 -16 9 -1414 9 -1448 -1z m1410
-171 l0 -40 -685 0 c-377 0 -688 -1 -692 -2 -5 -2 -9 16 -11 40 l-3 42 695 0
696 0 0 -40z m-2 -277 l3 -33 -695 0 -696 0 0 28 c0 16 3 32 6 35 4 4 316 6
693 4 l686 -2 3 -32z m2 -298 l0 -35 -692 2 -693 3 -3 33 -3 32 695 0 696 0 0
-35z"/>
</g>
</svg>
